<svg width="360" height="360" viewBox="-69 0 360 360" fill="none" xmlns="http://www.w3.org/2000/svg">
<path d="M90.4928 53.1634C90.4928 148.452 10.7188 166.283 10.7188 257.872C10.7188 293.627 33.2385 324.59 59.8198 328.291C57.88 321.771 57.2436 316.737 57.2436 309.701C57.2436 243.588 163.447 223.087 163.447 110.33C163.447 56.4085 125.44 10.8267 81.0971 0C81.0971 0 90.4626 29.2658 90.4626 53.1332L90.4928 53.1634Z" fill="#EB052C"/>
<path d="M83.7695 313.698C83.7695 332.41 97.0148 352.335 114.291 358.826C113.382 356.066 112.957 353.639 112.957 349.575C112.957 312.728 221.889 300.991 221.889 204.702C221.889 178.075 210.766 149.174 188.731 130.219C173.818 239.671 83.7695 254.742 83.7695 313.698Z" fill="#66A80F"/>
<path d="M26.6722 30.6016C26.6722 30.6016 31.9158 40.0335 31.9158 50.5569C31.9158 84.3717 0 97.2607 0 131.621C0 147.846 8.82001 161.16 21.2771 168.893C21.6106 165.953 21.9136 163.193 22.6714 160.887C30.1275 137.02 65.1045 110.605 65.1045 73.1506C65.1045 50.7085 46.4945 32.2394 26.6722 30.6016Z" fill="#09A3DF"/>
</svg>
